<svg width="122" height="122" viewBox="0 0 122 122" fill="none" xmlns="http://www.w3.org/2000/svg">
<path d="M15.25 45.75H106.75M35.5833 15.25V25.4167M86.4167 15.25V25.4167M30.5 61H40.6667M55.9167 61H66.0833M81.3333 61H91.5M30.5 76.25H40.6667M55.9167 76.25H66.0833M81.3333 76.25H91.5M30.5 91.5H40.6667M55.9167 91.5H66.0833M81.3333 91.5H91.5M31.5167 106.75H90.4833C96.1772 106.75 99.0244 106.75 101.199 105.642C103.112 104.667 104.667 103.112 105.642 101.199C106.75 99.0244 106.75 96.1772 106.75 90.4833V41.6833C106.75 35.9894 106.75 33.1425 105.642 30.9678C104.667 29.0548 103.112 27.4995 101.199 26.5248C99.0244 25.4167 96.1772 25.4167 90.4833 25.4167H31.5167C25.8228 25.4167 22.9759 25.4167 20.8011 26.5248C18.8881 27.4995 17.3328 29.0548 16.3581 30.9678C15.25 33.1425 15.25 35.9894 15.25 41.6833V90.4833C15.25 96.1772 15.25 99.0244 16.3581 101.199C17.3328 103.112 18.8881 104.667 20.8011 105.642C22.9759 106.75 25.8228 106.75 31.5167 106.75Z" stroke="#E5E5E5" stroke-width="5.76727" stroke-linecap="round"/>
</svg>
