<svg width="122" height="122" viewBox="0 0 122 122" fill="none" xmlns="http://www.w3.org/2000/svg">
<path d="M12.7084 28.975C12.7084 23.2811 12.7084 20.4342 13.8165 18.2594C14.7912 16.3464 16.3465 14.7911 18.2595 13.8164C20.4342 12.7083 23.2812 12.7083 28.975 12.7083H93.0251C98.7189 12.7083 101.566 12.7083 103.741 13.8164C105.654 14.7911 107.209 16.3464 108.184 18.2594C109.292 20.4342 109.292 23.2811 109.292 28.975V93.025C109.292 98.7188 109.292 101.566 108.184 103.741C107.209 105.654 105.654 107.209 103.741 108.183C101.566 109.292 98.7189 109.292 93.0251 109.292H28.975C23.2812 109.292 20.4342 109.292 18.2595 108.183C16.3465 107.209 14.7912 105.654 13.8165 103.741C12.7084 101.566 12.7084 98.7188 12.7084 93.025V28.975Z" stroke="#E5E5E5" stroke-width="5.76727" stroke-linecap="round"/>
<path d="M63.5417 76.3994C63.5417 87.3713 52.6649 95.0787 47.92 97.9192C46.5752 98.7239 44.9249 98.7239 43.5801 97.9192C38.8354 95.0787 27.9584 87.3713 27.9584 76.3994C27.9584 65.635 36.5791 58.4583 45.75 58.4583C55.2391 58.4583 63.5417 65.635 63.5417 76.3994Z" stroke="#E5E5E5" stroke-width="5.76727"/>
<path d="M94.0416 109.292L63.5416 33.0417" stroke="#E5E5E5" stroke-width="5.76727"/>
<path d="M109.292 22.875L12.7084 43.2083" stroke="#E5E5E5" stroke-width="5.76727"/>
<path d="M45.75 81.3334C48.5574 81.3334 50.8333 79.0575 50.8333 76.25C50.8333 73.4426 48.5574 71.1667 45.75 71.1667C42.9425 71.1667 40.6666 73.4426 40.6666 76.25C40.6666 79.0575 42.9425 81.3334 45.75 81.3334Z" fill="#E5E5E5"/>
</svg>
