<svg width="122" height="122" viewBox="0 0 122 122" fill="none" xmlns="http://www.w3.org/2000/svg">
<g clip-path="url(#clip0_2033_120)">
<path d="M119.766 70.8591L92.1615 43.2528L92.1844 43.2738C92.9564 40.4144 93.4063 37.4178 93.4063 34.3125C93.4063 15.3644 78.0438 0 59.0938 0C55.9237 0 52.8679 0.465125 49.9571 1.26956C48.718 0.449875 47.2579 0 45.75 0H7.625C3.41409 0 0 3.41409 0 7.625V45.75C0 47.7725 0.804438 49.7112 2.23413 51.1409L70.8591 119.766C72.346 121.255 74.2999 122 76.25 122C78.2001 122 80.154 121.255 81.6409 119.766L119.766 81.6409C122.745 78.6652 122.745 73.8348 119.766 70.8591ZM59.0938 3.81441C75.9393 3.81441 89.5938 17.4689 89.5938 34.3144C89.5938 36.2264 89.3707 38.2947 89.0314 40.1247L85.6574 36.7506L85.6116 36.7029C85.684 35.9423 85.7813 35.0426 85.7813 34.3144C85.7813 19.5772 73.8329 7.62691 59.0938 7.62691C58.2703 7.62691 57.462 7.67647 56.6576 7.74891C55.0944 7.88997 53.5771 8.18353 52.0997 8.58384C45.3802 10.4043 39.7282 14.7773 36.2264 20.6085C35.5687 21.7008 34.9683 22.8293 34.4707 24.0168C33.144 27.1869 32.4063 30.6639 32.4063 34.3144C32.4063 35.4906 32.656 37.7781 32.656 37.7781C32.656 37.7781 31.2549 38.125 30.5 38.125C29.9224 38.125 29.3658 38.0488 28.8263 37.9268C28.7539 37.9115 28.7634 37.9115 28.8263 37.9268C28.6872 36.7392 28.5938 35.5401 28.5938 34.3144C28.5938 30.277 29.3963 26.434 30.8203 22.9093C31.3311 21.6474 31.9202 20.4331 32.5873 19.2627C36.2073 12.9015 42.0481 7.98719 49.0574 5.54147C50.4299 5.06109 51.8367 4.66269 53.2911 4.38438C55.1688 4.01837 57.1074 3.81441 59.0938 3.81441ZM81.902 32.9953L60.4129 11.5061C71.9895 12.1676 81.2387 21.4167 81.902 32.9953ZM38.125 30.5C38.125 32.3891 37.4178 34.0933 36.274 35.4162C36.2588 35.0502 36.2188 34.688 36.2188 34.3144C36.2188 31.8344 36.6248 29.4535 37.3549 27.2155C37.8353 28.2144 38.125 29.32 38.125 30.5ZM24.7813 34.3125C24.7813 34.7147 24.8232 35.1093 24.8403 35.5077C23.6413 34.1676 22.875 32.4406 22.875 30.5C22.875 27.837 24.2475 25.4961 26.3177 24.1331C25.3188 27.3509 24.7813 30.7688 24.7813 34.3125ZM117.07 78.9454L78.9435 117.07C78.2249 117.791 77.268 118.188 76.25 118.188C75.2321 118.188 74.2751 117.791 73.5546 117.07L4.92956 48.4454C4.22044 47.7344 3.8125 46.7508 3.8125 45.75V7.625C3.8125 5.5205 5.52241 3.8125 7.625 3.8125H43.4206C36.8516 7.19609 31.5351 12.6327 28.2849 19.2817C23.0294 20.313 19.0625 24.9414 19.0625 30.5C19.0625 36.8154 24.1846 41.9375 30.5 41.9375C36.8154 41.9375 41.9375 36.8154 41.9375 30.5C41.9375 27.6635 40.8986 25.071 39.1868 23.0733C42.5189 17.1868 48.3787 12.9396 55.2965 11.7806L117.07 73.5546C117.791 74.2751 118.188 75.2321 118.188 76.25C118.188 77.2679 117.791 78.2249 117.07 78.9454Z" fill="#E5E5E5"/>
<path d="M95.5451 72.2087C93.3148 69.9784 89.6872 69.9765 87.4569 72.2068L72.2374 87.4263C70.009 89.6547 69.927 93.3662 72.1573 95.5965C74.3838 97.8268 78.0819 97.7582 80.3123 95.5279L95.547 80.2969H95.5432C97.7735 78.0666 97.7735 74.4371 95.5451 72.2087ZM92.8478 77.6015L77.674 92.7752C76.9287 93.5206 75.5924 93.6464 74.8527 92.9011C74.1074 92.1557 74.2046 90.8538 74.95 90.1084L90.1542 74.9042C90.8996 74.1588 92.1043 74.1588 92.8497 74.9042C93.5931 75.6476 93.5931 76.8562 92.8478 77.6015Z" fill="#E5E5E5"/>
<path d="M80.2951 65.0489C82.5254 62.8186 82.5254 59.1891 80.297 56.9607C78.0666 54.7304 74.4391 54.7285 72.2087 56.9588L56.9892 72.1783C54.7608 74.4067 54.6789 78.1181 56.9092 80.3485C59.1357 82.5788 62.8338 82.5101 65.0641 80.2798L80.2989 65.0489H80.2951ZM77.5996 62.3535L62.4259 77.5272C61.6805 78.2725 60.3442 78.3984 59.6046 77.653C58.8593 76.9077 58.9565 75.6057 59.7018 74.8604L74.9061 59.6561C75.6514 58.9108 76.8562 58.9108 77.6015 59.6561C78.345 60.3996 78.345 61.6081 77.5996 62.3535Z" fill="#E5E5E5"/>
<path d="M65.0375 49.7913C67.2678 47.561 67.2678 43.9315 65.0394 41.703C62.809 39.4727 59.1815 39.4708 56.9511 41.7011L41.7316 56.9206C39.5032 59.149 39.4213 62.8605 41.6516 65.0908C43.8781 67.3211 47.5762 67.2525 49.8065 65.0222L65.0413 49.7913H65.0375ZM62.342 47.0958L47.1683 62.2696C46.4229 63.0149 45.0866 63.1407 44.347 62.3954C43.6017 61.65 43.6989 60.3481 44.4442 59.6027L59.6485 44.3985C60.3938 43.6531 61.5986 43.6531 62.3439 44.3985C63.0874 45.1419 63.0874 46.3505 62.342 47.0958Z" fill="#E5E5E5"/>
</g>
<defs>
<clipPath id="clip0_2033_120">
<rect width="122" height="122" fill="white"/>
</clipPath>
</defs>
</svg>
